<svg xmlns="http://www.w3.org/2000/svg" xmlns:xlink="http://www.w3.org/1999/xlink" xmlns:inkscape="http://www.inkscape.org/namespaces/inkscape" version="1.1" width="669.883" height="171.65" viewBox="0 0 669.883 171.65">
<defs>
<clipPath id="clip_0">
<path transform="matrix(1,0,0,-1,0,171.65)" d="M0 171.65H669.883V0H0Z"/>
</clipPath>
</defs>
<g clip-path="url(#clip_0)">
<path transform="matrix(1,0,0,-1,276.3405,41.08699)" d="M0 0H5.473C7.537 0 8.884 1.405 8.884 3.812 8.884 6.247 7.537 7.653 5.473 7.653H0ZM-2.495-10.204V9.86H5.904C9.344 9.86 11.435 7.509 11.435 3.812 11.435 .114 9.344-2.208 5.904-2.208H0V-10.204Z" fill="#231f20"/>
<path transform="matrix(1,0,0,-1,304.1648,44.642099)" d="M0 0V6.765C0 9.631-1.92 11.551-5.216 11.551-8.541 11.551-10.431 9.631-10.431 6.765V0C-10.431-2.866-8.541-4.786-5.216-4.786-1.92-4.786 0-2.866 0 0M-12.926 6.651C-12.926 11.15-9.944 13.845-5.216 13.845-.487 13.845 2.495 11.15 2.495 6.651V.116C2.495-4.385-.487-7.078-5.216-7.078-9.944-7.078-12.926-4.385-12.926 .116Z" fill="#231f20"/>
<path transform="matrix(1,0,0,-1,311.4098,51.290597)" d="M0 0V20.064H2.495V2.207H12.755V0Z" fill="#231f20"/>
<path transform="matrix(1,0,0,-1,0,171.65)" d="M327.483 140.423H329.978V120.35901H327.483Z" fill="#231f20"/>
<path transform="matrix(1,0,0,-1,339.4056,51.290597)" d="M0 0V17.856H-6.106V20.064H8.569V17.856H2.493V0Z" fill="#231f20"/>
<path transform="matrix(1,0,0,-1,351.2956,51.290597)" d="M0 0V20.064H12.497V17.856H2.495V11.208H11.15V9H2.495V2.207H12.525V0Z" fill="#231f20"/>
<path transform="matrix(1,0,0,-1,367.4572,44.49839)" d="M0 0V6.477C0 11.036 2.838 13.701 7.683 13.701 9.775 13.701 11.493 13.128 12.898 11.952 14.304 10.777 14.99 9.086 14.99 6.878V6.593H12.497V6.878C12.497 8.341 12.01 9.459 11.036 10.232 10.09 11.006 8.942 11.407 7.653 11.407 4.299 11.407 2.495 9.659 2.495 6.651V-.172C2.495-3.182 4.299-4.93 7.653-4.93 8.942-4.93 10.09-4.529 11.036-3.754 12.01-2.98 12.497-1.862 12.497-.401V-.114H14.99V-.401C14.99-2.609 14.304-4.299 12.898-5.473 11.493-6.649 9.775-7.222 7.683-7.222 2.838-7.222 0-4.557 0 0" fill="#231f20"/>
<path transform="matrix(1,0,0,-1,386.9119,51.290597)" d="M0 0V20.064H2.495V11.178H12.268V20.064H14.763V0H12.268V8.97H2.495V0Z" fill="#231f20"/>
<path transform="matrix(1,0,0,-1,406.9975,51.290597)" d="M0 0V20.064H2.293L12.268 4.615V20.064H14.763V0H12.469L2.495 15.419V0Z" fill="#231f20"/>
<path transform="matrix(1,0,0,-1,0,171.65)" d="M427.083 140.423H429.578V120.35901H427.083Z" fill="#231f20"/>
<path transform="matrix(1,0,0,-1,434.9052,51.290597)" d="M0 0V20.064H2.495V11.178H5.705L11.523 20.064H13.845V19.232L7.882 10.204 14.218 .83V0H11.753L5.733 8.97H2.495V0Z" fill="#231f20"/>
<path transform="matrix(1,0,0,-1,455.5378,43.839593)" d="M0 0H7.138L3.583 9.287ZM-5.102-7.451V-6.621L2.379 12.613H4.872L12.381-6.621V-7.451H9.918L7.91-2.12H-.744L-2.808-7.451Z" fill="#231f20"/>
<path transform="matrix(1,0,0,-1,273.8455,81.16809)" d="M0 0V20.064H2.495V2.208H12.755V0Z" fill="#231f20"/>
<path transform="matrix(1,0,0,-1,291.3822,79.762798)" d="M0 0C-1.347 1.231-2.034 2.922-2.034 5.13V18.659H.459V5.044C.459 2.263 2.294 .457 5.362 .457 8.427 .457 10.234 2.205 10.234 5.044V18.659H12.727V5.13C12.727 2.952 12.038 1.231 10.691 0 9.345-1.234 7.567-1.834 5.362-1.834 3.154-1.834 1.347-1.234 0 0" fill="#231f20"/>
<path transform="matrix(1,0,0,-1,311.6416,78.960399)" d="M0 0H6.22C8.397 0 9.601 1.232 9.601 3.409 9.601 5.617 8.397 6.878 6.22 6.878H0ZM0 9H5.559C7.653 9 8.826 10.232 8.826 12.323 8.826 14.473 7.681 15.649 5.503 15.649H0ZM-2.495-2.208V17.857H5.932C9.343 17.857 11.321 16.022 11.321 12.581 11.321 10.431 10.461 8.97 8.713 8.226 10.976 7.567 12.094 5.932 12.094 3.267 12.094-.259 10.06-2.208 6.649-2.208Z" fill="#231f20"/>
<path transform="matrix(1,0,0,-1,327.9146,81.16809)" d="M0 0V20.064H12.497V17.857H2.495V11.208H11.15V9H2.495V2.208H12.525V0Z" fill="#231f20"/>
<path transform="matrix(1,0,0,-1,344.649,81.16809)" d="M0 0V20.064H2.495V2.208H12.755V0Z" fill="#231f20"/>
<path transform="matrix(1,0,0,-1,361.3834,79.82079)" d="M0 0C-1.489 1.176-2.236 2.894-2.236 5.16H.26C.26 1.633 3.212 .515 5.619 .515 8.485 .515 10.09 1.834 10.09 3.755 10.09 4.615 9.745 5.301 9.058 5.788 8.369 6.305 7.194 6.878 5.503 7.509L4.07 8.026C2.036 8.74 .603 9.515-.285 10.29-1.174 11.064-1.605 12.182-1.605 13.615-1.605 16.938 1.032 19.146 5.304 19.146 9.689 19.146 12.583 16.968 12.583 12.381H10.09C10.09 15.449 8.054 16.852 5.273 16.852 2.609 16.852 .888 15.591 .888 13.787 .888 12.898 1.204 12.238 1.807 11.751 2.407 11.264 3.525 10.749 5.102 10.204L6.449 9.717C8.513 8.942 9.573 8.513 10.834 7.595 12.124 6.679 12.727 5.475 12.727 3.868 12.727 .545 10.118-1.776 5.503-1.776 3.326-1.776 1.491-1.176 0 0" fill="#231f20"/>
<path transform="matrix(1,0,0,-1,378.5748,81.16809)" d="M0 0V20.064H2.495V11.178H5.705L11.523 20.064H13.845V19.232L7.882 10.204 14.218 .83V0H11.753L5.733 8.97H2.495V0Z" fill="#231f20"/>
<path transform="matrix(1,0,0,-1,399.2052,73.716999)" d="M0 0H7.138L3.583 9.288ZM-5.102-7.451V-6.621L2.379 12.613H4.872L12.381-6.621V-7.451H9.918L7.91-2.12H-.744L-2.808-7.451Z" fill="#231f20"/>
<path transform="matrix(1,0,0,-1,276.3684,111.04739)" d="M0 0-3.956 19.232V20.064H-1.491L1.691 3.984 5.791 14.387H7.365L11.523 3.926 14.675 20.064H16.996V19.232L13.042 0H10.691L6.535 10.577 2.352 0Z" fill="#919699"/>
<path transform="matrix(1,0,0,-1,302.0709,111.04739)" d="M0 0V7.968L-7.108 19.232V20.064H-4.643L1.261 10.461 7.307 20.064H9.573V19.232L2.493 8.054V0Z" fill="#919699"/>
<path transform="matrix(1,0,0,-1,317.2004,108.83989)" d="M0 0H4.499C7.794 0 9.717 1.862 9.717 4.729V10.92C9.717 13.787 7.794 15.649 4.499 15.649H0ZM-2.495-2.207V17.857H4.499C9.228 17.857 12.21 15.306 12.21 10.862V4.787C12.21 .343 9.228-2.207 4.499-2.207Z" fill="#919699"/>
<path transform="matrix(1,0,0,-1,332.727,111.04739)" d="M0 0V2.178L10.95 17.856H.401V20.064H13.816V17.914L2.866 2.207H14.102V0Z" fill="#919699"/>
<path transform="matrix(1,0,0,-1,0,171.65)" d="M350.693 80.667H353.188V60.603H350.693Z" fill="#919699"/>
<path transform="matrix(1,0,0,-1,361.6108,103.59629)" d="M0 0H7.138L3.583 9.287ZM-5.102-7.451V-6.621L2.379 12.613H4.872L12.381-6.621V-7.451H9.918L7.91-2.12H-.744L-2.808-7.451Z" fill="#919699"/>
<path transform="matrix(1,0,0,-1,378.459,111.04739)" d="M0 0V7.136L-2.236 5.417H-3.124V7.451L0 9.83V20.064H2.493V11.75L6.85 15.162H7.738V13.098L2.493 9.028V2.207H12.754V0Z" fill="#919699"/>
<path transform="matrix(1,0,0,-1,400.5205,111.04739)" d="M0 0V20.064H12.497V17.856H2.495V11.208H11.15V9H2.495V2.207H12.525V0Z" fill="#919699"/>
<path transform="matrix(1,0,0,-1,417.2547,111.04739)" d="M0 0V20.064H2.495V2.207H12.755V0Z" fill="#919699"/>
<path transform="matrix(1,0,0,-1,433.3305,111.04739)" d="M0 0V20.064H12.497V17.856H2.495V11.208H11.15V9H2.495V2.207H12.525V0Z" fill="#919699"/>
<path transform="matrix(1,0,0,-1,450.0627,111.04739)" d="M0 0V20.064H2.495V11.178H5.705L11.523 20.064H13.845V19.232L7.882 10.204 14.218 .83V0H11.753L5.733 8.97H2.495V0Z" fill="#919699"/>
<path transform="matrix(1,0,0,-1,471.6995,111.04739)" d="M0 0V17.856H-6.106V20.064H8.569V17.856H2.493V0Z" fill="#919699"/>
<path transform="matrix(1,0,0,-1,486.0823,100.901798)" d="M0 0H5.473C7.852 0 9.172 1.347 9.172 3.87 9.172 6.421 7.938 7.711 5.473 7.711H0ZM-2.495-10.146V9.918H5.904C9.601 9.918 11.723 7.653 11.723 3.87 11.723 .918 10.433-1.002 7.882-1.892L12.038-9.315V-10.146H9.573L5.13-2.205H0V-10.146Z" fill="#919699"/>
<path transform="matrix(1,0,0,-1,514.5953,104.398799)" d="M0 0V6.765C0 9.631-1.92 11.551-5.216 11.551-8.541 11.551-10.433 9.631-10.433 6.765V0C-10.433-2.866-8.541-4.786-5.216-4.786-1.92-4.786 0-2.866 0 0M-12.926 6.651C-12.926 11.15-9.944 13.845-5.216 13.845-.487 13.845 2.495 11.15 2.495 6.651V.116C2.495-4.385-.487-7.078-5.216-7.078-9.944-7.078-12.926-4.385-12.926 .116Z" fill="#919699"/>
<path transform="matrix(1,0,0,-1,525.9402,111.04739)" d="M0 0V17.856H-6.106V20.064H8.569V17.856H2.493V0Z" fill="#919699"/>
<path transform="matrix(1,0,0,-1,537.8282,111.04739)" d="M0 0V20.064H12.497V17.856H2.495V11.208H11.15V9H2.495V2.207H12.525V0Z" fill="#919699"/>
<path transform="matrix(1,0,0,-1,553.9897,104.25489)" d="M0 0V6.477C0 11.036 2.838 13.701 7.683 13.701 9.775 13.701 11.493 13.128 12.898 11.952 14.303 10.776 14.99 9.086 14.99 6.878V6.593H12.497V6.878C12.497 8.341 12.01 9.459 11.036 10.232 10.09 11.006 8.942 11.407 7.653 11.407 4.299 11.407 2.495 9.659 2.495 6.651V-.172C2.495-3.182 4.299-4.93 7.653-4.93 8.942-4.93 10.09-4.529 11.036-3.755 12.01-2.98 12.497-1.862 12.497-.401V-.114H14.99V-.401C14.99-2.609 14.303-4.3 12.898-5.473 11.493-6.649 9.775-7.222 7.683-7.222 2.838-7.222 0-4.557 0 0" fill="#919699"/>
<path transform="matrix(1,0,0,-1,573.4445,111.04739)" d="M0 0V20.064H2.495V11.178H12.268V20.064H14.763V0H12.268V8.97H2.495V0Z" fill="#919699"/>
<path transform="matrix(1,0,0,-1,593.5301,111.04739)" d="M0 0V20.064H2.293L12.267 4.615V20.064H14.763V0H12.469L2.495 15.419V0Z" fill="#919699"/>
<path transform="matrix(1,0,0,-1,0,171.65)" d="M613.615 80.667H616.11V60.603H613.615Z" fill="#919699"/>
<path transform="matrix(1,0,0,-1,621.4379,111.04739)" d="M0 0V20.064H2.495V11.178H5.705L11.523 20.064H13.844V19.232L7.882 10.204 14.218 .83V0H11.753L5.733 8.97H2.495V0Z" fill="#919699"/>
<path transform="matrix(1,0,0,-1,0,171.65)" d="M638.975 80.667H641.47V60.603H638.975Z" fill="#919699"/>
<path transform="matrix(1,0,0,-1,0,171.65)" d="M273.845 50.789H276.34V30.725003H273.845Z" fill="#919699"/>
<path transform="matrix(1,0,0,-1,0,171.65)" d="M288.801 50.789H291.296V30.725003H288.801Z" fill="#919699"/>
<path transform="matrix(1,0,0,-1,296.6236,140.9249)" d="M0 0V20.064H2.293L12.268 4.615V20.064H14.763V0H12.469L2.495 15.419V0Z" fill="#919699"/>
<path transform="matrix(1,0,0,-1,316.7112,140.9249)" d="M0 0V20.064H12.641V17.857H2.523V11.064H11.266V8.856H2.523V0Z" fill="#919699"/>
<path transform="matrix(1,0,0,-1,345.5974,134.2761)" d="M0 0V6.765C0 9.631-1.92 11.551-5.216 11.551-8.541 11.551-10.431 9.631-10.431 6.765V0C-10.431-2.866-8.541-4.786-5.216-4.786-1.92-4.786 0-2.866 0 0M-12.926 6.651C-12.926 11.15-9.944 13.845-5.216 13.845-.487 13.845 2.495 11.15 2.495 6.651V.116C2.495-4.385-.487-7.078-5.216-7.078-9.944-7.078-12.926-4.385-12.926 .116Z" fill="#919699"/>
<path transform="matrix(1,0,0,-1,355.3377,130.7791)" d="M0 0H5.473C7.852 0 9.172 1.347 9.172 3.87 9.172 6.421 7.938 7.711 5.473 7.711H0ZM-2.495-10.146V9.918H5.904C9.601 9.918 11.723 7.653 11.723 3.87 11.723 .918 10.431-1.002 7.882-1.892L12.038-9.315V-10.146H9.573L5.13-2.205H0V-10.146Z" fill="#919699"/>
<path transform="matrix(1,0,0,-1,371.4948,140.9249)" d="M0 0V20.064H2.409L8.887 9.888 15.364 20.064H17.685V0H15.278V15.649L9.661 6.823H8.026L2.409 15.621V0Z" fill="#919699"/>
<path transform="matrix(1,0,0,-1,397.6006,133.47379)" d="M0 0H7.138L3.583 9.288ZM-5.102-7.451V-6.621L2.379 12.613H4.872L12.381-6.621V-7.451H9.918L7.91-2.12H-.745L-2.809-7.451Z" fill="#919699"/>
<path transform="matrix(1,0,0,-1,415.8239,140.9249)" d="M0 0V17.857H-6.106V20.064H8.569V17.857H2.493V0Z" fill="#919699"/>
<path transform="matrix(1,0,0,-1,433.6761,140.9249)" d="M0 0V7.968L-7.108 19.232V20.064H-4.643L1.261 10.461 7.307 20.064H9.573V19.232L2.493 8.054V0Z" fill="#919699"/>
<path transform="matrix(1,0,0,-1,446.3083,140.9249)" d="M0 0V20.064H2.495V11.178H5.705L11.523 20.064H13.844V19.232L7.882 10.204 14.218 .83V0H11.753L5.732 8.97H2.495V0Z" fill="#919699"/>
<path transform="matrix(1,0,0,-1,0,171.65)" d="M463.845 50.789H466.34V30.725003H463.845Z" fill="#919699"/>
<path transform="matrix(1,0,0,-1,131.7425,59.88539)" d="M0 0V31.734H-74.571V23.734H-8V8H-23.079-31.079V0-11.54-19.54H-23.079-8V-32.388H-23.079-31.079V-40.388-51.928-59.928H-23.079-8V-75.662H-74.571V-83.662H0V-51.928H-23.079V-40.388H0V-11.54H-23.079V0Z" fill="#f0ba0b"/>
<path transform="matrix(1,0,0,-1,49.3382,135.5472)" d="M0 0H-6.598L-13.452 6.853V92.542L-6.598 99.396H0V107.396H-9.912L-21.452 95.856V3.54L-9.912-8H0Z" fill="#f0ba0b"/>
<path transform="matrix(1,0,0,-1,163.2913,135.5472)" d="M0 0H-13.452V99.396H0V107.396H-21.452V-8H0Z" fill="#f0ba0b"/>
<path transform="matrix(1,0,0,-1,171.1241,28.15149)" d="M0 0V-8H66.572V-107.396H0V-115.396H74.572V0Z" fill="#f0ba0b"/>
</g>
</svg>
